<svg xmlns="http://www.w3.org/2000/svg" width="800" height="200" viewBox="0 0 800 200">
  <defs>
    <linearGradient id="bg" x1="0%" y1="0%" x2="100%" y2="100%">
      <stop offset="0%" style="stop-color:#f5f5f7"/>
      <stop offset="100%" style="stop-color:#ebebed"/>
    </linearGradient>
  </defs>
  <rect width="800" height="200" fill="url(#bg)" rx="12"/>
  <rect x="0.5" y="0.5" width="799" height="199" fill="none" stroke="#d2d2d7" stroke-width="1" rx="12"/>
  <!-- Grid pattern -->
  <g opacity="0.06">
    <line x1="40" y1="0" x2="40" y2="200" stroke="#1d1d1f" stroke-width="0.5"/>
    <line x1="80" y1="0" x2="80" y2="200" stroke="#1d1d1f" stroke-width="0.5"/>
    <line x1="120" y1="0" x2="120" y2="200" stroke="#1d1d1f" stroke-width="0.5"/>
    <line x1="160" y1="0" x2="160" y2="200" stroke="#1d1d1f" stroke-width="0.5"/>
    <line x1="200" y1="0" x2="200" y2="200" stroke="#1d1d1f" stroke-width="0.5"/>
    <line x1="240" y1="0" x2="240" y2="200" stroke="#1d1d1f" stroke-width="0.5"/>
    <line x1="280" y1="0" x2="280" y2="200" stroke="#1d1d1f" stroke-width="0.5"/>
    <line x1="320" y1="0" x2="320" y2="200" stroke="#1d1d1f" stroke-width="0.5"/>
    <line x1="360" y1="0" x2="360" y2="200" stroke="#1d1d1f" stroke-width="0.5"/>
    <line x1="400" y1="0" x2="400" y2="200" stroke="#1d1d1f" stroke-width="0.5"/>
    <line x1="440" y1="0" x2="440" y2="200" stroke="#1d1d1f" stroke-width="0.5"/>
    <line x1="480" y1="0" x2="480" y2="200" stroke="#1d1d1f" stroke-width="0.5"/>
    <line x1="520" y1="0" x2="520" y2="200" stroke="#1d1d1f" stroke-width="0.5"/>
    <line x1="560" y1="0" x2="560" y2="200" stroke="#1d1d1f" stroke-width="0.5"/>
    <line x1="600" y1="0" x2="600" y2="200" stroke="#1d1d1f" stroke-width="0.5"/>
    <line x1="640" y1="0" x2="640" y2="200" stroke="#1d1d1f" stroke-width="0.5"/>
    <line x1="680" y1="0" x2="680" y2="200" stroke="#1d1d1f" stroke-width="0.5"/>
    <line x1="720" y1="0" x2="720" y2="200" stroke="#1d1d1f" stroke-width="0.5"/>
    <line x1="760" y1="0" x2="760" y2="200" stroke="#1d1d1f" stroke-width="0.5"/>
    <line x1="0" y1="40" x2="800" y2="40" stroke="#1d1d1f" stroke-width="0.5"/>
    <line x1="0" y1="80" x2="800" y2="80" stroke="#1d1d1f" stroke-width="0.5"/>
    <line x1="0" y1="120" x2="800" y2="120" stroke="#1d1d1f" stroke-width="0.5"/>
    <line x1="0" y1="160" x2="800" y2="160" stroke="#1d1d1f" stroke-width="0.5"/>
  </g>
  <!-- Miniature rack blocks (left side decoration) -->
  <g transform="translate(50, 55)" opacity="0.18">
    <rect x="0" y="0" width="28" height="14" rx="2" fill="#e8e8ed" stroke="#1d1d1f" stroke-width="0.8"/>
    <rect x="32" y="0" width="28" height="14" rx="2" fill="#e8e8ed" stroke="#1d1d1f" stroke-width="0.8"/>
    <rect x="64" y="0" width="28" height="14" rx="2" fill="#e8e8ed" stroke="#1d1d1f" stroke-width="0.8"/>
    <rect x="96" y="0" width="28" height="14" rx="2" fill="#e8e8ed" stroke="#34a853" stroke-width="0.8"/>
    <rect x="0" y="18" width="28" height="14" rx="2" fill="#e8e8ed" stroke="#1d1d1f" stroke-width="0.8"/>
    <rect x="32" y="18" width="28" height="14" rx="2" fill="#e8e8ed" stroke="#1d1d1f" stroke-width="0.8"/>
    <rect x="64" y="18" width="28" height="14" rx="2" fill="#e8e8ed" stroke="#1d1d1f" stroke-width="0.8"/>
    <rect x="96" y="18" width="28" height="14" rx="2" fill="#e8e8ed" stroke="#34a853" stroke-width="0.8"/>
    <rect x="0" y="36" width="28" height="14" rx="2" fill="#e8e8ed" stroke="#1d1d1f" stroke-width="0.8"/>
    <rect x="32" y="36" width="28" height="14" rx="2" fill="#e8e8ed" stroke="#1d1d1f" stroke-width="0.8"/>
    <rect x="64" y="36" width="28" height="14" rx="2" fill="#e8e8ed" stroke="#1d1d1f" stroke-width="0.8"/>
    <rect x="96" y="36" width="28" height="14" rx="2" fill="#e8e8ed" stroke="#a68a3a" stroke-width="0.8"/>
    <rect x="0" y="54" width="28" height="14" rx="2" fill="#e8e8ed" stroke="#1d1d1f" stroke-width="0.8"/>
    <rect x="32" y="54" width="28" height="14" rx="2" fill="#e8e8ed" stroke="#1d1d1f" stroke-width="0.8"/>
    <rect x="64" y="54" width="28" height="14" rx="2" fill="#e8e8ed" stroke="#1d1d1f" stroke-width="0.8"/>
    <rect x="96" y="54" width="28" height="14" rx="2" fill="#e8e8ed" stroke="#a68a3a" stroke-width="0.8"/>
  </g>
  <!-- Right side rack blocks -->
  <g transform="translate(620, 55)" opacity="0.18">
    <rect x="0" y="0" width="28" height="14" rx="2" fill="#e8e8ed" stroke="#1d1d1f" stroke-width="0.8"/>
    <rect x="32" y="0" width="28" height="14" rx="2" fill="#e8e8ed" stroke="#1d1d1f" stroke-width="0.8"/>
    <rect x="64" y="0" width="28" height="14" rx="2" fill="#e8e8ed" stroke="#34a853" stroke-width="0.8"/>
    <rect x="96" y="0" width="28" height="14" rx="2" fill="#e8e8ed" stroke="#34a853" stroke-width="0.8"/>
    <rect x="0" y="18" width="28" height="14" rx="2" fill="#e8e8ed" stroke="#1d1d1f" stroke-width="0.8"/>
    <rect x="32" y="18" width="28" height="14" rx="2" fill="#e8e8ed" stroke="#1d1d1f" stroke-width="0.8"/>
    <rect x="64" y="18" width="28" height="14" rx="2" fill="#e8e8ed" stroke="#34a853" stroke-width="0.8"/>
    <rect x="96" y="18" width="28" height="14" rx="2" fill="#e8e8ed" stroke="#34a853" stroke-width="0.8"/>
    <rect x="0" y="36" width="28" height="14" rx="2" fill="#e8e8ed" stroke="#1d1d1f" stroke-width="0.8"/>
    <rect x="32" y="36" width="28" height="14" rx="2" fill="#e8e8ed" stroke="#1d1d1f" stroke-width="0.8"/>
    <rect x="64" y="36" width="28" height="14" rx="2" fill="#e8e8ed" stroke="#c44" stroke-width="0.8"/>
    <rect x="96" y="36" width="28" height="14" rx="2" fill="#e8e8ed" stroke="#c44" stroke-width="0.8"/>
    <rect x="0" y="54" width="28" height="14" rx="2" fill="#e8e8ed" stroke="#1d1d1f" stroke-width="0.8"/>
    <rect x="32" y="54" width="28" height="14" rx="2" fill="#e8e8ed" stroke="#1d1d1f" stroke-width="0.8"/>
    <rect x="64" y="54" width="28" height="14" rx="2" fill="#e8e8ed" stroke="#c44" stroke-width="0.8"/>
    <rect x="96" y="54" width="28" height="14" rx="2" fill="#e8e8ed" stroke="#c44" stroke-width="0.8"/>
  </g>
  <!-- Title -->
  <text x="400" y="82" text-anchor="middle" font-family="'DM Serif Display', Georgia, serif" font-size="44" font-weight="400" fill="#1d1d1f">Blueprint Map</text>
  <!-- Accent line -->
  <rect x="340" y="96" width="120" height="1.5" rx="0.75" fill="#1d1d1f" opacity="0.2"/>
  <!-- Subtitle -->
  <text x="400" y="125" text-anchor="middle" font-family="'JetBrains Mono', 'SF Mono', monospace" font-size="13" fill="#6e6e73" letter-spacing="0.5">Overhead CSV → Visual Data Center Map</text>
  <!-- Bottom tags -->
  <text x="400" y="160" text-anchor="middle" font-family="'JetBrains Mono', monospace" font-size="11" fill="#aeaeb2">zero dependencies · 7-pass parser · works offline</text>
</svg>
