<svg xmlns="http://www.w3.org/2000/svg" width="800" height="200" viewBox="0 0 800 200">
  <defs>
    <linearGradient id="bg" x1="0%" y1="0%" x2="100%" y2="100%">
      <stop offset="0%" style="stop-color:#0a1628"/>
      <stop offset="100%" style="stop-color:#0d2240"/>
    </linearGradient>
    <linearGradient id="accent" x1="0%" y1="0%" x2="100%" y2="0%">
      <stop offset="0%" style="stop-color:#3d7cc9"/>
      <stop offset="100%" style="stop-color:#7ec8e3"/>
    </linearGradient>
  </defs>
  <rect width="800" height="200" fill="url(#bg)" rx="12"/>
  <!-- Grid pattern -->
  <g opacity="0.08">
    <line x1="40" y1="0" x2="40" y2="200" stroke="#7ec8e3" stroke-width="0.5"/>
    <line x1="80" y1="0" x2="80" y2="200" stroke="#7ec8e3" stroke-width="0.5"/>
    <line x1="120" y1="0" x2="120" y2="200" stroke="#7ec8e3" stroke-width="0.5"/>
    <line x1="160" y1="0" x2="160" y2="200" stroke="#7ec8e3" stroke-width="0.5"/>
    <line x1="200" y1="0" x2="200" y2="200" stroke="#7ec8e3" stroke-width="0.5"/>
    <line x1="240" y1="0" x2="240" y2="200" stroke="#7ec8e3" stroke-width="0.5"/>
    <line x1="280" y1="0" x2="280" y2="200" stroke="#7ec8e3" stroke-width="0.5"/>
    <line x1="320" y1="0" x2="320" y2="200" stroke="#7ec8e3" stroke-width="0.5"/>
    <line x1="360" y1="0" x2="360" y2="200" stroke="#7ec8e3" stroke-width="0.5"/>
    <line x1="400" y1="0" x2="400" y2="200" stroke="#7ec8e3" stroke-width="0.5"/>
    <line x1="440" y1="0" x2="440" y2="200" stroke="#7ec8e3" stroke-width="0.5"/>
    <line x1="480" y1="0" x2="480" y2="200" stroke="#7ec8e3" stroke-width="0.5"/>
    <line x1="520" y1="0" x2="520" y2="200" stroke="#7ec8e3" stroke-width="0.5"/>
    <line x1="560" y1="0" x2="560" y2="200" stroke="#7ec8e3" stroke-width="0.5"/>
    <line x1="600" y1="0" x2="600" y2="200" stroke="#7ec8e3" stroke-width="0.5"/>
    <line x1="640" y1="0" x2="640" y2="200" stroke="#7ec8e3" stroke-width="0.5"/>
    <line x1="680" y1="0" x2="680" y2="200" stroke="#7ec8e3" stroke-width="0.5"/>
    <line x1="720" y1="0" x2="720" y2="200" stroke="#7ec8e3" stroke-width="0.5"/>
    <line x1="760" y1="0" x2="760" y2="200" stroke="#7ec8e3" stroke-width="0.5"/>
    <line x1="0" y1="40" x2="800" y2="40" stroke="#7ec8e3" stroke-width="0.5"/>
    <line x1="0" y1="80" x2="800" y2="80" stroke="#7ec8e3" stroke-width="0.5"/>
    <line x1="0" y1="120" x2="800" y2="120" stroke="#7ec8e3" stroke-width="0.5"/>
    <line x1="0" y1="160" x2="800" y2="160" stroke="#7ec8e3" stroke-width="0.5"/>
  </g>
  <!-- Miniature rack blocks (left side decoration) -->
  <g transform="translate(50, 55)" opacity="0.25">
    <rect x="0" y="0" width="28" height="14" rx="2" fill="#0d2b3d" stroke="#4a9ec4" stroke-width="0.8"/>
    <rect x="32" y="0" width="28" height="14" rx="2" fill="#0d2b3d" stroke="#4a9ec4" stroke-width="0.8"/>
    <rect x="64" y="0" width="28" height="14" rx="2" fill="#0d2b3d" stroke="#4a9ec4" stroke-width="0.8"/>
    <rect x="96" y="0" width="28" height="14" rx="2" fill="#0d3324" stroke="#4ac49a" stroke-width="0.8"/>
    <rect x="0" y="18" width="28" height="14" rx="2" fill="#0d2b3d" stroke="#4a9ec4" stroke-width="0.8"/>
    <rect x="32" y="18" width="28" height="14" rx="2" fill="#0d2b3d" stroke="#4a9ec4" stroke-width="0.8"/>
    <rect x="64" y="18" width="28" height="14" rx="2" fill="#0d2b3d" stroke="#4a9ec4" stroke-width="0.8"/>
    <rect x="96" y="18" width="28" height="14" rx="2" fill="#0d3324" stroke="#4ac49a" stroke-width="0.8"/>
    <rect x="0" y="36" width="28" height="14" rx="2" fill="#0d2b3d" stroke="#4a9ec4" stroke-width="0.8"/>
    <rect x="32" y="36" width="28" height="14" rx="2" fill="#0d2b3d" stroke="#4a9ec4" stroke-width="0.8"/>
    <rect x="64" y="36" width="28" height="14" rx="2" fill="#0d2b3d" stroke="#4a9ec4" stroke-width="0.8"/>
    <rect x="96" y="36" width="28" height="14" rx="2" fill="#200d33" stroke="#955ac4" stroke-width="0.8"/>
    <rect x="0" y="54" width="28" height="14" rx="2" fill="#0d2b3d" stroke="#4a9ec4" stroke-width="0.8"/>
    <rect x="32" y="54" width="28" height="14" rx="2" fill="#0d2b3d" stroke="#4a9ec4" stroke-width="0.8"/>
    <rect x="64" y="54" width="28" height="14" rx="2" fill="#0d2b3d" stroke="#4a9ec4" stroke-width="0.8"/>
    <rect x="96" y="54" width="28" height="14" rx="2" fill="#200d33" stroke="#955ac4" stroke-width="0.8"/>
  </g>
  <!-- Right side rack blocks -->
  <g transform="translate(620, 55)" opacity="0.25">
    <rect x="0" y="0" width="28" height="14" rx="2" fill="#0d2b3d" stroke="#4a9ec4" stroke-width="0.8"/>
    <rect x="32" y="0" width="28" height="14" rx="2" fill="#0d2b3d" stroke="#4a9ec4" stroke-width="0.8"/>
    <rect x="64" y="0" width="28" height="14" rx="2" fill="#0d3324" stroke="#4ac49a" stroke-width="0.8"/>
    <rect x="96" y="0" width="28" height="14" rx="2" fill="#0d3324" stroke="#4ac49a" stroke-width="0.8"/>
    <rect x="0" y="18" width="28" height="14" rx="2" fill="#0d2b3d" stroke="#4a9ec4" stroke-width="0.8"/>
    <rect x="32" y="18" width="28" height="14" rx="2" fill="#0d2b3d" stroke="#4a9ec4" stroke-width="0.8"/>
    <rect x="64" y="18" width="28" height="14" rx="2" fill="#0d3324" stroke="#4ac49a" stroke-width="0.8"/>
    <rect x="96" y="18" width="28" height="14" rx="2" fill="#0d3324" stroke="#4ac49a" stroke-width="0.8"/>
    <rect x="0" y="36" width="28" height="14" rx="2" fill="#0d2b3d" stroke="#4a9ec4" stroke-width="0.8"/>
    <rect x="32" y="36" width="28" height="14" rx="2" fill="#0d2b3d" stroke="#4a9ec4" stroke-width="0.8"/>
    <rect x="64" y="36" width="28" height="14" rx="2" fill="#1a1a0d" stroke="#8a8a3a" stroke-width="0.8"/>
    <rect x="96" y="36" width="28" height="14" rx="2" fill="#1a1a0d" stroke="#8a8a3a" stroke-width="0.8"/>
    <rect x="0" y="54" width="28" height="14" rx="2" fill="#0d2b3d" stroke="#4a9ec4" stroke-width="0.8"/>
    <rect x="32" y="54" width="28" height="14" rx="2" fill="#0d2b3d" stroke="#4a9ec4" stroke-width="0.8"/>
    <rect x="64" y="54" width="28" height="14" rx="2" fill="#1a1a0d" stroke="#8a8a3a" stroke-width="0.8"/>
    <rect x="96" y="54" width="28" height="14" rx="2" fill="#1a1a0d" stroke="#8a8a3a" stroke-width="0.8"/>
  </g>
  <!-- Title -->
  <text x="400" y="82" text-anchor="middle" font-family="'Space Grotesk', 'Segoe UI', system-ui, sans-serif" font-size="42" font-weight="700" fill="#c4dff6">Blueprint Map</text>
  <!-- Accent line -->
  <rect x="320" y="95" width="160" height="2" rx="1" fill="url(#accent)" opacity="0.6"/>
  <!-- Subtitle -->
  <text x="400" y="125" text-anchor="middle" font-family="'IBM Plex Mono', 'SF Mono', monospace" font-size="14" fill="#7ec8e3" opacity="0.8">Overhead CSV → Visual Data Center Map</text>
  <!-- Bottom tags -->
  <text x="400" y="160" text-anchor="middle" font-family="'IBM Plex Mono', monospace" font-size="11" fill="#3d7cc9" opacity="0.5">zero dependencies · 6-pass parser · works offline</text>
</svg>
